<?xml version="1.0" encoding="utf-8"?>
<svg version="1.1" xmlns:xlink="http://www.w3.org/1999/xlink" width="35px" height="15px" xmlns="http://www.w3.org/2000/svg">
  <g transform="matrix(1 0 0 1 -525 -729 )">
    <path d="M 34.6492985971944 1.54639175257732  C 34.8830995323981 1.71821305841924  35 1.91580756013746  35 2.13917525773196  C 35 2.36254295532646  34.8830995323981 2.56013745704467  34.6492985971944 2.7319587628866  L 18.3066132264529 14.7422680412371  C 18.0728122912492 14.914089347079  17.8039412157649 15  17.5 15  C 17.1960587842351 15  16.9271877087508 14.914089347079  16.6933867735471 14.7422680412371  L 0.350701402805611 2.7319587628866  C 0.116900467601871 2.56013745704467  0 2.36254295532646  0 2.13917525773196  C 0 1.91580756013746  0.116900467601871 1.71821305841924  0.350701402805611 1.54639175257732  L 2.10420841683367 0.257731958762887  C 2.33800935203741 0.0859106529209602  2.60688042752171 0  2.91082164328657 0  C 3.21476285905144 0  3.48363393453574 0.0859106529209602  3.71743486973948 0.257731958762887  L 17.5 10.3865979381443  L 31.2825651302605 0.257731958762887  C 31.5163660654643 0.0859106529209602  31.7852371409486 0  32.0891783567134 0  C 32.3931195724783 0  32.6619906479626 0.0859106529209602  32.8957915831663 0.257731958762887  L 34.6492985971944 1.54639175257732  Z " fill-rule="nonzero" fill="#8c8c8c" stroke="none" transform="matrix(1 0 0 1 525 729 )" />
  </g>
</svg>