<?xml version="1.0" encoding="utf-8"?>
<svg version="1.1" xmlns:xlink="http://www.w3.org/1999/xlink" width="35px" height="17px" xmlns="http://www.w3.org/2000/svg">
  <g transform="matrix(1 0 0 1 -525 -700 )">
    <path d="M 34.6492985971944 13.9037800687285  C 34.8830995323981 14.098510882016  35 14.3224513172967  35 14.5756013745704  C 35 14.8287514318442  34.8830995323981 15.0526918671249  34.6492985971944 15.2474226804124  L 32.8957915831663 16.7079037800687  C 32.6619906479626 16.9026345933562  32.3931195724783 17  32.0891783567134 17  C 31.7852371409486 17  31.5163660654643 16.9026345933562  31.2825651302605 16.7079037800687  L 17.5 5.22852233676976  L 3.71743486973948 16.7079037800687  C 3.48363393453574 16.9026345933562  3.21476285905144 17  2.91082164328657 17  C 2.60688042752171 17  2.33800935203741 16.9026345933562  2.10420841683367 16.7079037800687  L 0.350701402805611 15.2474226804124  C 0.116900467601871 15.0526918671249  0 14.8287514318442  0 14.5756013745704  C 0 14.3224513172967  0.116900467601871 14.098510882016  0.350701402805611 13.9037800687285  L 16.6933867735471 0.292096219931272  C 16.9271877087508 0.0973654066437549  17.1960587842351 0  17.5 0  C 17.8039412157649 0  18.0728122912492 0.0973654066437549  18.3066132264529 0.292096219931272  L 34.6492985971944 13.9037800687285  Z " fill-rule="nonzero" fill="#8c8c8c" stroke="none" transform="matrix(1 0 0 1 525 700 )" />
  </g>
</svg>