<?xml version="1.0" encoding="utf-8"?>
<svg version="1.1" xmlns:xlink="http://www.w3.org/1999/xlink" width="15px" height="13px" xmlns="http://www.w3.org/2000/svg">
  <g transform="matrix(1 0 0 1 -591 -829 )">
    <path d="M 10.2493990384615 7.96219281663516  L 10.6911057692308 7.57718966603655  L 13.0078125 5.52930056710775  L 9.79867788461539 5.10333963453056  L 9.20372596153846 5.02142407057341  L 8.93329326923077 4.5299306868305  L 7.5 1.89224952741021  L 7.5 9.78071833648393  L 8.03185096153846 10.0346565847511  L 10.8984375 11.4108380592313  L 10.3575721153846 8.50283553875236  L 10.2493990384615 7.96219281663516  Z M 14.9819711538462 4.94360428481412  C 15.0360576923077 5.09378281873556  14.9639423076923 5.25624868725058  14.765625 5.43100189035917  L 11.4933894230769 8.33081285444234  L 12.2686298076923 12.4265910522999  C 12.2986778846154 12.6068052930057  12.2806490384615 12.7474270111321  12.2145432692308 12.8484562066793  C 12.1484375 12.9494854022264  12.0462740384615 13  11.9080528846154 13  C 11.8058894230769 13  11.6856971153846 12.9672337744171  11.5474759615385 12.9017013232514  L 7.5 10.9684940138626  L 3.45252403846154 12.9017013232514  C 3.31430288461539 12.9672337744171  3.19411057692308 13  3.09194711538462 13  C 2.95372596153846 13  2.8515625 12.9494854022264  2.78545673076923 12.8484562066793  C 2.71935096153846 12.7474270111321  2.70132211538462 12.6068052930057  2.73137019230769 12.4265910522999  L 3.50661057692308 8.33081285444234  L 0.225360576923077 5.43100189035917  C 0.0330528846153846 5.25624868725058  -0.0360576923076923 5.09378281873556  0.0180288461538462 4.94360428481412  C 0.0721153846153846 4.79342575089267  0.234375 4.69922285234195  0.504807692307692 4.66099558916194  L 5.03004807692308 4.06301197227473  L 7.05829326923077 0.335853812224322  C 7.17848557692308 0.11195127074144  7.32572115384615 0  7.5 0  C 7.66826923076923 0  7.81550480769231 0.11195127074144  7.94170673076923 0.335853812224322  L 9.96995192307692 4.06301197227473  L 14.4951923076923 4.66099558916194  C 14.765625 4.69922285234195  14.9278846153846 4.79342575089267  14.9819711538462 4.94360428481412  Z " fill-rule="nonzero" fill="#003245" stroke="none" transform="matrix(1 0 0 1 591 829 )" />
  </g>
</svg>